REM MD5 305639edfaa71ad13c0ee29b26ec5c11
FILE "Simple 1500 Series Vol. 25 - The Keiba (Japan).bin" BINARY
  TRACK 01 MODE2/2352
    INDEX 01 00:00:00
  TRACK 02 AUDIO
    INDEX 00 00:54:06
    INDEX 01 00:56:06
  TRACK 03 AUDIO
    INDEX 00 03:11:11
    INDEX 01 03:13:11
  TRACK 04 AUDIO
    INDEX 00 05:43:69
    INDEX 01 05:45:69
  TRACK 05 AUDIO
    INDEX 00 08:18:33
    INDEX 01 08:20:33
REM LEADOUT 11:30:33
